<svg width="32" height="32" viewBox="0 0 32 32" fill="none" xmlns="http://www.w3.org/2000/svg">
<path d="M16 26.6665C18.829 26.6665 21.5421 25.5427 23.5425 23.5423C25.5429 21.5419 26.6667 18.8288 26.6667 15.9998C26.6667 13.1709 25.5429 10.4578 23.5425 8.45737C21.5421 6.45698 18.829 5.33317 16 5.33317C13.171 5.33317 10.4579 6.45698 8.45755 8.45737C6.45716 10.4578 5.33335 13.1709 5.33335 15.9998C5.33335 18.8288 6.45716 21.5419 8.45755 23.5423C10.4579 25.5427 13.171 26.6665 16 26.6665ZM16 29.3332C8.63602 29.3332 2.66669 23.3638 2.66669 15.9998C2.66669 8.63584 8.63602 2.6665 16 2.6665C23.364 2.6665 29.3334 8.63584 29.3334 15.9998C29.3334 23.3638 23.364 29.3332 16 29.3332ZM16 18.6665C15.2928 18.6665 14.6145 18.3856 14.1144 17.8855C13.6143 17.3854 13.3334 16.7071 13.3334 15.9998C13.3334 15.2926 13.6143 14.6143 14.1144 14.1142C14.6145 13.6141 15.2928 13.3332 16 13.3332C16.7073 13.3332 17.3855 13.6141 17.8856 14.1142C18.3857 14.6143 18.6667 15.2926 18.6667 15.9998C18.6667 16.7071 18.3857 17.3854 17.8856 17.8855C17.3855 18.3856 16.7073 18.6665 16 18.6665Z" fill="#124258"/>
</svg>
