<svg width="32" height="32" viewBox="0 0 32 32" fill="none" xmlns="http://www.w3.org/2000/svg">
<path d="M16 29.3332C8.63596 29.3332 2.66663 23.3638 2.66663 15.9998C2.66663 8.63584 8.63596 2.6665 16 2.6665C23.364 2.6665 29.3333 8.63584 29.3333 15.9998C29.3333 23.3638 23.364 29.3332 16 29.3332ZM16 26.6665C18.8289 26.6665 21.542 25.5427 23.5424 23.5423C25.5428 21.5419 26.6666 18.8288 26.6666 15.9998C26.6666 13.1709 25.5428 10.4578 23.5424 8.45737C21.542 6.45698 18.8289 5.33317 16 5.33317C13.171 5.33317 10.4579 6.45698 8.45749 8.45737C6.4571 10.4578 5.33329 13.1709 5.33329 15.9998C5.33329 18.8288 6.4571 21.5419 8.45749 23.5423C10.4579 25.5427 13.171 26.6665 16 26.6665V26.6665ZM16 22.6665C14.2318 22.6665 12.5362 21.9641 11.2859 20.7139C10.0357 19.4636 9.33329 17.7679 9.33329 15.9998C9.33329 14.2317 10.0357 12.536 11.2859 11.2858C12.5362 10.0355 14.2318 9.33317 16 9.33317C17.7681 9.33317 19.4638 10.0355 20.714 11.2858C21.9642 12.536 22.6666 14.2317 22.6666 15.9998C22.6666 17.7679 21.9642 19.4636 20.714 20.7139C19.4638 21.9641 17.7681 22.6665 16 22.6665V22.6665Z" fill="#124258"/>
</svg>
